<svg width="166" height="166" viewBox="0 0 166 166" fill="none" xmlns="http://www.w3.org/2000/svg">
<path d="M8 83L83 8L158 83L83 158L8 83Z" fill="#0B0C10"/>
<path d="M8 83L83 8L158 83L83 158L8 83Z" fill="url(#paint0_linear_74_355)" fill-opacity="0.2"/>
<path d="M84.7678 6.23223L83 4.46447L81.2322 6.23223L6.23223 81.2322L4.46447 83L6.23223 84.7678L81.2322 159.768L83 161.536L84.7678 159.768L159.768 84.7678L161.536 83L159.768 81.2322L84.7678 6.23223Z" stroke="url(#paint1_linear_74_355)" stroke-opacity="0.2" stroke-width="5"/>
<g filter="url(#filter0_d_74_355)">
<path d="M79.6875 70.3125L80.375 71.25C80.75 71.75 81.3125 72 82 72H84C84.625 72 85.1875 71.75 85.5625 71.25L86.25 70.3125C86.375 70.125 86.625 70 86.875 70C87.1875 70 87.5 70.3125 87.5625 70.625L88.75 77L93.25 74.8125C94.25 74.375 95.5 74.625 96.1875 75.4375C99.25 79.0625 101 83.625 101 88.375V90.6875C101 91.3125 100.312 91.6875 99.8125 91.4375L95.8125 89.4375C95.3125 89.1875 94.75 89.375 94.5 89.8125L92.625 92.9375C92.3125 93.5 91.5 93.5625 91.0625 93.125L88.8125 90.8125C88.375 90.4375 87.625 90.4375 87.3125 90.9375L83.75 95.5C83.375 96 82.5625 96 82.1875 95.5L78.6875 90.9375C78.3125 90.4375 77.625 90.4375 77.1875 90.8125L74.875 93.125C74.4375 93.5625 73.625 93.5 73.3125 92.9375L71.4375 89.8125C71.1875 89.375 70.625 89.1875 70.125 89.4375L66.125 91.4375C65.625 91.6875 65 91.3125 65 90.6875V88.375C65 83.625 66.6875 79.0625 69.75 75.4375C70.4375 74.625 71.6875 74.375 72.6875 74.8125L77.1875 77L78.375 70.625C78.4375 70.3125 78.75 70 79.125 70C79.3125 70 79.5625 70.125 79.6875 70.3125Z" fill="url(#paint2_linear_74_355)" shape-rendering="crispEdges"/>
</g>
<defs>
<filter id="filter0_d_74_355" x="45" y="54" width="76" height="65.875" filterUnits="userSpaceOnUse" color-interpolation-filters="sRGB">
<feFlood flood-opacity="0" result="BackgroundImageFix"/>
<feColorMatrix in="SourceAlpha" type="matrix" values="0 0 0 0 0 0 0 0 0 0 0 0 0 0 0 0 0 0 127 0" result="hardAlpha"/>
<feOffset dy="4"/>
<feGaussianBlur stdDeviation="10"/>
<feComposite in2="hardAlpha" operator="out"/>
<feColorMatrix type="matrix" values="0 0 0 0 0 0 0 0 0 0 0 0 0 0 0 0 0 0 0.1 0"/>
<feBlend mode="normal" in2="BackgroundImageFix" result="effect1_dropShadow_74_355"/>
<feBlend mode="normal" in="SourceGraphic" in2="effect1_dropShadow_74_355" result="shape"/>
</filter>
<linearGradient id="paint0_linear_74_355" x1="83" y1="8" x2="83" y2="158" gradientUnits="userSpaceOnUse">
<stop stop-opacity="0"/>
<stop offset="1" stop-color="white" stop-opacity="0.2"/>
</linearGradient>
<linearGradient id="paint1_linear_74_355" x1="83" y1="-2.87786" x2="12.3676" y2="132.635" gradientUnits="userSpaceOnUse">
<stop stop-color="white" stop-opacity="0.75"/>
<stop offset="0.306666" stop-color="white" stop-opacity="0.4"/>
<stop offset="1" stop-color="white" stop-opacity="0.05"/>
</linearGradient>
<linearGradient id="paint2_linear_74_355" x1="101" y1="70" x2="61.2849" y2="87.3908" gradientUnits="userSpaceOnUse">
<stop stop-color="white" stop-opacity="0.2"/>
<stop offset="1" stop-color="white" stop-opacity="0.05"/>
</linearGradient>
</defs>
</svg>
