<svg width="84" height="64" viewBox="0 0 84 64" fill="none" xmlns="http://www.w3.org/2000/svg">
<g id="Vector">
<path d="M0 25.5938L4.62246 23.7484V39.156L13.2744 35.7023V39.8507L0 45.1489V25.5938ZM5.24476 23.5002L13.2744 20.2947V24.4431L9.86722 25.8032V27.1366L12.415 26.1195V29.8525L9.86722 30.8695V32.2624L13.2744 30.9023V35.0507L5.24476 38.2562V23.5002Z" fill="#C52543"/>
<path d="M13.8665 20.0585L20.6222 17.3616C22.4193 16.6445 23.8371 16.6367 24.874 17.3383C25.9109 18.0408 26.4393 19.2966 26.4591 21.1057C26.4194 22.821 25.8316 24.4276 24.6965 25.9282C23.5605 27.4288 22.0245 28.5648 20.0887 29.3379L18.489 29.9766V37.7692L13.8665 39.6145V20.0585ZM19.7327 25.954C20.2852 25.7334 20.6705 25.4162 20.8885 25.0042C21.1057 24.5913 21.2143 23.9707 21.2143 23.1407C21.2143 22.2323 21.1057 21.6384 20.8885 21.36C20.6713 21.0816 20.286 21.0523 19.7327 21.2729L18.4881 21.7694V26.4212L19.7327 25.954Z" fill="#C52543"/>
<path d="M27.0512 14.7957L36.859 10.8808V15.0292L31.6737 17.0987V20.8317L35.9997 19.1052V22.8382L31.6737 24.5646V28.357L36.859 26.2876V30.436L27.0512 34.3508V14.7957Z" fill="#C52543"/>
<path d="M40.3256 13.645L37.4511 14.7922V10.6438L47.8812 6.48075V10.6291L44.9774 11.7884V27.196L40.3256 29.0526V13.645Z" fill="#C52543"/>
<path d="M48.4733 6.24458L53.0957 4.39922V8.48815C53.0957 8.78465 52.9673 8.98375 52.7104 9.08632C52.5518 9.14924 52.4234 9.18113 52.3252 9.18113L49.2731 9.45091V9.65863L51.8209 9.82671C52.2553 9.85084 52.5768 9.98961 52.7837 10.2421C52.9914 10.4956 53.0949 10.9179 53.0949 11.5109V23.9552L48.4724 25.8006L48.4733 6.24458Z" fill="#C52543"/>
<path d="M56.5624 7.16425L53.6879 8.31146V4.16306L64.1179 0V4.1484L61.2141 5.30768V20.7153L56.5624 22.5719V7.16425Z" fill="#C52543"/>
<path d="M3.14082 63.8318C2.25219 63.7025 1.56007 63.312 1.06705 62.6596C0.573174 62.008 0.326666 61.1478 0.326666 60.0807V58.718L4.97843 56.8615V58.9352C4.97843 59.3309 5.11633 59.5963 5.39301 59.7325C5.66969 59.8696 5.99549 59.8627 6.37042 59.7127C7.23923 59.3662 7.6745 58.7482 7.6745 57.8587V56.3176C7.6745 55.2316 7.0815 54.8851 5.89637 55.279C4.11824 55.8703 2.6909 55.9513 1.61523 55.5212C0.538698 55.092 0 54.0577 0 52.4174V51.2616C0 50.1558 0.256851 49.0758 0.770553 48.0208C1.28426 46.9667 2.00051 46.0237 2.91845 45.1928C3.83725 44.362 4.86896 43.7181 6.01445 43.2604C7.14011 42.8114 8.15718 42.6424 9.0665 42.7536C9.97496 42.8648 10.6964 43.2441 11.2299 43.8905C11.7634 44.5369 12.0298 45.3937 12.0298 46.4599V47.9113L7.378 49.7679V47.6347C7.378 47.2201 7.24441 46.9425 6.97807 46.802C6.71174 46.6616 6.39025 46.6667 6.01531 46.8158C5.61969 46.9736 5.29906 47.2201 5.05255 47.5554C4.80518 47.8915 4.68193 48.2768 4.68193 48.7103V50.1325C4.68193 50.7841 4.86466 51.1814 5.23011 51.3211C5.59556 51.4616 6.17304 51.3943 6.96342 51.1177C8.60279 50.5221 9.91117 50.435 10.8895 50.8539C11.8669 51.2737 12.3564 52.264 12.3564 53.8241V55.3057C12.3564 56.3926 12.0944 57.4596 11.5712 58.5077C11.048 59.5567 10.3163 60.5048 9.37851 61.3529C8.43988 62.2019 7.37887 62.8621 6.19287 63.3353C5.04738 63.793 4.03032 63.9568 3.14082 63.8275V63.8318Z" fill="#C52543"/>
<path d="M12.9477 40.7911L22.7554 36.8762V41.0246L17.5702 43.0941V46.8271L21.8961 45.1006V48.8336L17.5702 50.56V54.3524L22.7554 52.283V56.4314L12.9477 60.3462V40.7911Z" fill="#C52543"/>
<path d="M23.3476 36.6401L29.9257 34.0147C31.8219 33.2579 33.2045 33.17 34.0741 33.7518C34.9429 34.3336 35.3782 35.523 35.3782 37.3201C35.3782 38.8612 35.0671 40.1756 34.4448 41.2634C33.8225 42.3511 32.7606 43.2346 31.26 43.9129L31.2307 44.1025C32.3365 43.6612 33.1665 43.488 33.7199 43.5828C34.2724 43.6785 34.6387 43.9767 34.8162 44.4783C34.9938 44.9808 35.0826 45.7247 35.0826 46.7124V51.5124L30.4308 53.369V47.976C30.4308 47.2451 30.3369 46.7495 30.149 46.4883C29.9611 46.228 29.6103 46.1996 29.0974 46.4047L27.9718 46.8538V54.3499L23.3493 56.1952V36.6392L23.3476 36.6401ZM29.0664 43.4242C29.6387 43.1958 30.0145 42.8579 30.1921 42.4115C30.3696 41.9658 30.4584 41.2082 30.4584 40.142C30.4584 39.1344 30.3739 38.4527 30.2067 38.0941C30.0386 37.7364 29.6784 37.6683 29.125 37.889L27.9692 38.3501V43.8612L29.0655 43.4233L29.0664 43.4242Z" fill="#C52543"/>
<path d="M35.0808 31.9564L39.8515 30.0524L41.4219 43.5294L41.8072 43.3759L43.5552 28.5742L48.3259 26.6703L44.711 47.6691L38.6664 50.0816L35.0808 31.9564Z" fill="#C52543"/>
<path d="M48.918 26.4332L58.7258 22.5184V26.6668L53.5405 28.7363V32.4692L57.8664 30.7428V34.4758L53.5405 36.2022V39.9946L58.7258 37.9252V42.0736L48.918 45.9884V26.4332Z" fill="#C52543"/>
<path d="M62.3553 40.2101C61.4167 40.1101 60.6763 39.7395 60.1333 39.0974C59.5903 38.4553 59.3188 37.5908 59.3188 36.5039V22.2814L63.9412 20.436V35.3696C63.9412 35.8247 64.0697 36.1186 64.3265 36.2531C64.5834 36.3875 64.9385 36.3642 65.3936 36.1824C65.8082 36.0169 66.1391 35.7661 66.3865 35.4308C66.633 35.0955 66.7571 34.7007 66.7571 34.2457V19.3121L71.3494 17.4788L71.3787 31.7185C71.3787 32.8054 71.1167 33.8776 70.5935 34.9361C70.0695 35.9945 69.3584 36.94 68.4603 37.7726C67.5613 38.6052 66.5684 39.2387 65.4824 39.6723C64.3369 40.13 63.2948 40.3084 62.3562 40.2093L62.3553 40.2101Z" fill="#C52543"/>
<path d="M71.97 17.2323L78.5481 14.6069C80.4444 13.8501 81.8269 13.7622 82.6965 14.344C83.5654 14.9258 83.9998 16.1152 83.9998 17.9123C83.9998 19.4534 83.6886 20.7679 83.0663 21.8556C82.444 22.9433 81.3821 23.8268 79.8807 24.5051L79.8514 24.6948C80.9572 24.2535 81.7872 24.0802 82.3406 24.175C82.8931 24.2707 83.2594 24.5689 83.4369 25.0706C83.6145 25.573 83.7033 26.3177 83.7033 27.3046V32.1046L79.0515 33.9612V28.5682C79.0515 27.8373 78.9575 27.3417 78.7696 27.0805C78.5817 26.8202 78.231 26.7918 77.7181 26.9969L76.5925 27.446V34.9421L71.97 36.7874V17.2323ZM77.6879 24.0156C78.2603 23.7872 78.6361 23.4493 78.8136 23.0028C78.9912 22.5572 79.0799 21.8004 79.0799 20.7334C79.0799 19.7258 78.9955 19.044 78.8283 18.6855C78.6602 18.3278 78.2999 18.2597 77.7466 18.4803L76.5907 18.9415V24.4526L77.6871 24.0147L77.6879 24.0156Z" fill="#C52543"/>
</g>
</svg>
