<svg width="48" height="48" viewBox="0 0 48 48" fill="none" xmlns="http://www.w3.org/2000/svg">
<path id="&#239;&#149;&#140;" d="M39 37.4062C39 37.5 39 37.5 39 37.5V43.5C39 46.0312 36.9375 48 34.5 48H30V43.5C30 42.75 29.25 42 28.5 42C27.6562 42 27 42.75 27 43.5V48H21V43.5C21 42.75 20.25 42 19.5 42C18.6562 42 18 42.75 18 43.5V48H13.5C10.9688 48 9 46.0312 9 43.5V37.5C9 37.5 9 37.5 9 37.4062C3.46875 33.5625 0 27.6562 0 21C0 9.46875 10.6875 0 24 0C37.2188 0 48 9.46875 48 21C48 27.6562 44.4375 33.5625 39 37.4062ZM9 24C9 26.1562 10.125 28.125 12 29.25C13.7812 30.2812 16.125 30.2812 18 29.25C19.7812 28.125 21 26.1562 21 24C21 21.9375 19.7812 19.9688 18 18.8438C16.125 17.8125 13.7812 17.8125 12 18.8438C10.125 19.9688 9 21.9375 9 24ZM33 18C30.8438 18 28.875 19.2188 27.75 21C26.7188 22.875 26.7188 25.2188 27.75 27C28.875 28.875 30.8438 30 33 30C35.0625 30 37.0312 28.875 38.1562 27C39.1875 25.2188 39.1875 22.875 38.1562 21C37.0312 19.2188 35.0625 18 33 18Z" fill="url(#paint0_linear_49_249)"/>
<defs>
<linearGradient id="paint0_linear_49_249" x1="40" y1="5.70464e-07" x2="6.5" y2="48" gradientUnits="userSpaceOnUse">
<stop stop-color="white"/>
<stop offset="0.966666" stop-color="#93B3CA"/>
</linearGradient>
</defs>
</svg>
